<svg xmlns="http://www.w3.org/2000/svg" width="16.459" height="15.283" viewBox="0 0 16.459 15.283">
  <g id="Cataloge" transform="translate(-2 -3)">
    <path id="Path_6363" data-name="Path 6363" d="M17.871,3H2.588A.588.588,0,0,0,2,3.588V5.939a.588.588,0,0,0,.588.588H15.52V17.108H4.939V8.29a.588.588,0,0,0-1.176,0V17.7a.588.588,0,0,0,.588.588H16.108A.587.587,0,0,0,16.7,17.7V6.527h1.176a.588.588,0,0,0,.588-.588V3.588A.588.588,0,0,0,17.871,3Zm-.588,2.351H3.176V4.176H17.283Z" fill="#2085fb"/>
    <path id="Path_6364" data-name="Path 6364" d="M16.642,14.527a.588.588,0,0,0,.588-.588V11.588A.588.588,0,0,0,16.642,11H9.588A.588.588,0,0,0,9,11.588v2.351a.588.588,0,0,0,.588.588Zm-6.466-2.351h5.878v1.176H10.176Z" transform="translate(-2.885 -3.297)" fill="#2085fb"/>
  </g>
</svg>
