<svg xmlns="http://www.w3.org/2000/svg" width="22.607" height="20.029" viewBox="0 0 22.607 20.029">
  <g id="Data_enrich_active" transform="translate(-1055.829 -2052.867)">
    <g id="Path_6359" data-name="Path 6359" transform="translate(1057.331 2071.132)" fill="#fff" stroke-linecap="round" stroke-linejoin="round">
      <path d="M 17.98488998413086 1.014307379722595 L 1.617639541625977 1.014307379722595 C 0.3109895884990692 1.014307379722595 -0.7520403861999512 -0.04872265458106995 -0.7520403861999512 -1.355372667312622 L -0.7520403861999512 -15.32605838775635 C -0.75528484582901 -15.49539947509766 -0.7258439660072327 -16.0918083190918 -0.2033503949642181 -16.64012336730957 C 0.3466695845127106 -17.21732330322266 1.224899649620056 -17.50998306274414 2.406919717788696 -17.50998306274414 C 2.964959621429443 -17.50998306274414 3.553479671478271 -17.5112419128418 4.133919715881348 -17.51248359680176 C 4.699699401855469 -17.51370239257812 5.257809638977051 -17.514892578125 5.772669792175293 -17.514892578125 C 6.366399765014648 -17.514892578125 6.811719417572021 -17.5133228302002 7.17410945892334 -17.50995254516602 C 8.34528923034668 -17.49905204772949 8.894369125366211 -16.6119327545166 9.222439765930176 -16.0818920135498 C 9.30589485168457 -15.94706058502197 9.431032180786133 -15.74488353729248 9.494099617004395 -15.69045352935791 C 9.842092514038086 -15.50196647644043 10.14705944061279 -15.45045185089111 10.22697734832764 -15.43960285186768 L 17.98488998413086 -15.43960285186768 C 19.29154014587402 -15.43960285186768 20.35457038879395 -14.37657260894775 20.35457038879395 -13.06992244720459 L 20.35457038879395 -1.355372667312622 C 20.35457038879395 -0.04872265458106995 19.29154014587402 1.014307379722595 17.98488998413086 1.014307379722595 Z" stroke="none"/>
      <path d="M 5.772665023803711 -16.76489448547363 C 4.729623794555664 -16.76489448547363 3.508899688720703 -16.75998306274414 2.406919479370117 -16.75998306274414 C -0.07075119018554688 -16.75998306274414 -0.002040863037109375 -15.33575248718262 -0.002040863037109375 -15.33575248718262 L -0.002040863037109375 -1.355372428894043 C -0.002040863037109375 -0.4608535766601562 0.7231197357177734 0.2643070220947266 1.617639541625977 0.2643070220947266 L 17.98488998413086 0.2643070220947266 C 18.87940979003906 0.2643070220947266 19.60457038879395 -0.4608535766601562 19.60457038879395 -1.355372428894043 L 19.60457038879395 -13.06992244720459 C 19.60457038879395 -13.96444320678711 18.87940979003906 -14.68960285186768 17.98488998413086 -14.68960285186768 L 10.18658924102783 -14.68960285186768 C 10.18658924102783 -14.68960285186768 9.696559906005859 -14.72415256500244 9.123239517211914 -15.03842258453369 C 8.549919128417969 -15.35270309448242 8.354409217834473 -16.74893188476562 7.167129516601562 -16.75998306274414 C 6.771317481994629 -16.7636661529541 6.294281959533691 -16.76489448547363 5.772665023803711 -16.76489448547363 M 5.772669792175293 -18.264892578125 C 6.368489265441895 -18.264892578125 6.816020011901855 -18.26331329345703 7.181079864501953 -18.25992202758789 C 8.765509605407715 -18.24517250061035 9.504859924316406 -17.05066299438477 9.860169410705566 -16.47661209106445 C 9.896918296813965 -16.417236328125 9.942141532897949 -16.34417343139648 9.979272842407227 -16.28767585754395 C 10.11632823944092 -16.22820281982422 10.23040008544922 -16.20081901550293 10.28761291503906 -16.18960189819336 L 17.98488998413086 -16.18960189819336 C 19.7050895690918 -16.18960189819336 21.10457038879395 -14.79012298583984 21.10457038879395 -13.06992244720459 L 21.10457038879395 -1.355372428894043 C 21.10457038879395 0.3648281097412109 19.7050895690918 1.764307022094727 17.98488998413086 1.764307022094727 L 1.617639541625977 1.764307022094727 C -0.1025600433349609 1.764307022094727 -1.502040863037109 0.3648281097412109 -1.502040863037109 -1.355372428894043 L -1.502040863037109 -15.31498241424561 C -1.512006759643555 -15.82162094116211 -1.319826126098633 -16.55566215515137 -0.7463111877441406 -17.15751266479492 C -0.04920005798339844 -17.88906288146973 1.011690139770508 -18.25998306274414 2.406919479370117 -18.25998306274414 C 2.964439392089844 -18.25998306274414 3.552409172058105 -18.2612419128418 4.132309913635254 -18.26248168945312 C 4.698639869689941 -18.26369285583496 5.257299423217773 -18.264892578125 5.772669792175293 -18.264892578125 Z" stroke="none" fill="#2085fb"/>
    </g>
    <line id="Line_29" data-name="Line 29" x2="9.905" transform="translate(1064.045 2063.28)" fill="none" stroke="#2085fb" stroke-linecap="round" stroke-width="1"/>
    <line id="Line_30" data-name="Line 30" x2="8.364" transform="translate(1065.586 2060.052)" fill="none" stroke="#2085fb" stroke-linecap="round" stroke-width="1"/>
    <line id="Line_31" data-name="Line 31" x2="6.818" transform="translate(1067.132 2066.509)" fill="none" stroke="#2085fb" stroke-linecap="round" stroke-width="1"/>
  </g>
</svg>
