<svg xmlns="http://www.w3.org/2000/svg" width="22.607" height="20.029" viewBox="0 0 22.607 20.029">
  <g id="Data_enrich" transform="translate(-1055.829 -2052.867)">
    <g id="Path_6359" data-name="Path 6359" transform="translate(1057.331 2071.132)" fill="none" stroke-linecap="round" stroke-linejoin="round">
      <path d="M0-15.336S-.071-16.76,2.407-16.76c1.653,0,3.573-.011,4.76,0s1.383,1.407,1.956,1.722a2.868,2.868,0,0,0,1.063.349h7.8a1.62,1.62,0,0,1,1.62,1.62V-1.355a1.62,1.62,0,0,1-1.62,1.62H1.618A1.62,1.62,0,0,1,0-1.355Z" stroke="none"/>
      <path d="M 5.772665023803711 -16.76489448547363 C 4.729623794555664 -16.76489448547363 3.508899688720703 -16.75998306274414 2.406919479370117 -16.75998306274414 C -0.07075119018554688 -16.75998306274414 -0.002040863037109375 -15.33575248718262 -0.002040863037109375 -15.33575248718262 L -0.002040863037109375 -1.355372428894043 C -0.002040863037109375 -0.4608535766601562 0.7231197357177734 0.2643070220947266 1.617639541625977 0.2643070220947266 L 17.98488998413086 0.2643070220947266 C 18.87940979003906 0.2643070220947266 19.60457038879395 -0.4608535766601562 19.60457038879395 -1.355372428894043 L 19.60457038879395 -13.06992244720459 C 19.60457038879395 -13.96444320678711 18.87940979003906 -14.68960285186768 17.98488998413086 -14.68960285186768 L 10.18658924102783 -14.68960285186768 C 10.18658924102783 -14.68960285186768 9.696559906005859 -14.72415256500244 9.123239517211914 -15.03842258453369 C 8.549919128417969 -15.35270309448242 8.354409217834473 -16.74893188476562 7.167129516601562 -16.75998306274414 C 6.771317481994629 -16.7636661529541 6.294281959533691 -16.76489448547363 5.772665023803711 -16.76489448547363 M 5.772669792175293 -18.264892578125 C 6.368489265441895 -18.264892578125 6.816020011901855 -18.26331329345703 7.181079864501953 -18.25992202758789 C 8.765509605407715 -18.24517250061035 9.504859924316406 -17.05066299438477 9.860169410705566 -16.47661209106445 C 9.896918296813965 -16.417236328125 9.942141532897949 -16.34417343139648 9.979272842407227 -16.28767585754395 C 10.11632823944092 -16.22820281982422 10.23040008544922 -16.20081901550293 10.28761291503906 -16.18960189819336 L 17.98488998413086 -16.18960189819336 C 19.7050895690918 -16.18960189819336 21.10457038879395 -14.79012298583984 21.10457038879395 -13.06992244720459 L 21.10457038879395 -1.355372428894043 C 21.10457038879395 0.3648281097412109 19.7050895690918 1.764307022094727 17.98488998413086 1.764307022094727 L 1.617639541625977 1.764307022094727 C -0.1025600433349609 1.764307022094727 -1.502040863037109 0.3648281097412109 -1.502040863037109 -1.355372428894043 L -1.502040863037109 -15.31498241424561 C -1.512006759643555 -15.82162094116211 -1.319826126098633 -16.55566215515137 -0.7463111877441406 -17.15751266479492 C -0.04920005798339844 -17.88906288146973 1.011690139770508 -18.25998306274414 2.406919479370117 -18.25998306274414 C 2.964439392089844 -18.25998306274414 3.552409172058105 -18.2612419128418 4.132309913635254 -18.26248168945312 C 4.698639869689941 -18.26369285583496 5.257299423217773 -18.264892578125 5.772669792175293 -18.264892578125 Z" stroke="none" fill="#2085fb"/>
    </g>
    <line id="Line_29" data-name="Line 29" x2="9.905" transform="translate(1064.045 2063.28)" fill="none" stroke="#2085fb" stroke-linecap="round" stroke-width="1"/>
    <line id="Line_30" data-name="Line 30" x2="8.364" transform="translate(1065.586 2060.052)" fill="none" stroke="#2085fb" stroke-linecap="round" stroke-width="1"/>
    <line id="Line_31" data-name="Line 31" x2="6.818" transform="translate(1067.132 2066.509)" fill="none" stroke="#2085fb" stroke-linecap="round" stroke-width="1"/>
  </g>
</svg>
