<svg xmlns="http://www.w3.org/2000/svg" width="16.459" height="15.283" viewBox="0 0 16.459 15.283">
    <defs>
        <style>
            .cls-1{fill:#2085fb}
        </style>
    </defs>
    <g id="Group_7651" transform="translate(-2 -3)">
        <path id="Path_6363" d="M17.871 3H2.588A.588.588 0 0 0 2 3.588v2.351a.588.588 0 0 0 .588.588H15.52v10.581H4.939V8.29a.588.588 0 0 0-1.176 0v9.41a.588.588 0 0 0 .588.588h11.757a.587.587 0 0 0 .592-.588V6.527h1.176a.588.588 0 0 0 .588-.588V3.588A.588.588 0 0 0 17.871 3zm-.588 2.351H3.176V4.176h14.107z" class="cls-1"/>
        <path id="Path_6364" d="M16.642 14.527a.588.588 0 0 0 .588-.588v-2.351a.588.588 0 0 0-.588-.588H9.588a.588.588 0 0 0-.588.588v2.351a.588.588 0 0 0 .588.588zm-6.466-2.351h5.878v1.176h-5.878z" class="cls-1" transform="translate(-2.885 -3.297)"/>
    </g>
</svg>
