<svg xmlns="http://www.w3.org/2000/svg" width="922" height="438.201" viewBox="0 0 922 438.201">
    <defs>
        <style>
            .cls-1{fill:#e8f1fe}.cls-2{fill:#1e3e67}
        </style>
    </defs>
    <g id="Group_7658" transform="translate(25)">
        <path id="Path_6386" d="M268.727 561.344l14.313-12.331a237.8 237.8 0 0 0-3.165-26.616L272 525.672l7.328-6.313c-2.03-10.869-4.063-17.938-4.063-17.938s-28.882 25.33-45.148 56.347l6.908 23.238-10.675-15.4a96.211 96.211 0 0 0-4.164 11.351c-11.45 39.028-7.985 74.405 7.738 79.018s37.752-23.286 49.2-62.313c3.55-12.1 4.526-25.56 4.185-38.377z" class="cls-1" transform="translate(545.192 -220.063)"/>
        <path id="Path_6387" d="M241.733 591.977l18.626-3.157a237.793 237.793 0 0 0 11.048-24.42l-8.436-1.268 9.537-1.616c3.88-10.354 5.794-17.456 5.794-17.456s-37.817 6.754-67.775 24.9l-6.1 23.463-1.176-18.7a96.2 96.2 0 0 0-9.431 7.564c-29.975 27.491-45.3 59.567-34.22 71.643s44.353-.42 74.328-27.911c9.293-8.522 17.086-19.541 23.42-30.689z" class="cls-1" transform="translate(609.697 -220.063)"/>
        <rect id="Rectangle_6750" width="922" height="2.241" class="cls-2" rx="1" transform="translate(-25 435.96)"/>
        <path id="Path_6393" d="M160.46 339.135a119.067 119.067 0 0 0 116.607 119.051c.81.021 1.642.031 2.464.031s1.655-.011 2.477-.032a119.074 119.074 0 1 0-121.548-119.05z" class="cls-1" transform="translate(484.931 -220.063)"/>
        <path id="Path_6394" d="M273.9 656.34c.822.021 4.817.032 5.639.032s4.817-.011 5.639-.032l-5.639-315.476z" class="cls-2" transform="translate(484.926 -220.063)"/>
    </g>
</svg>
