<svg xmlns="http://www.w3.org/2000/svg" width="22.607" height="20.029" viewBox="0 0 22.607 20.029">
    <defs>
        <style>
            .cls-2{fill:none;stroke-linecap:round;stroke:#2085fb}
        </style>
    </defs>
    <g id="Group_7647" transform="translate(-1055.829 -2052.867)">
        <g id="Path_6359" fill="none" stroke="none" stroke-linecap="round" stroke-linejoin="round">
            <path d="M0-15.336s-.071-1.424 2.407-1.424c1.653 0 3.573-.011 4.76 0s1.383 1.407 1.956 1.722a2.868 2.868 0 0 0 1.063.349h7.8a1.62 1.62 0 0 1 1.62 1.62v11.714a1.62 1.62 0 0 1-1.62 1.62H1.618A1.62 1.62 0 0 1 0-1.355z" transform="translate(1057.331 2071.132)"/>
            <path fill="#2085fb" d="M5.773-16.765c-1.043 0-2.264.005-3.366.005-2.478 0-2.409 1.424-2.409 1.424v13.98c0 .895.725 1.62 1.62 1.62h16.367c.894 0 1.62-.725 1.62-1.62V-13.07c0-.894-.726-1.62-1.62-1.62h-7.798s-.49-.034-1.064-.348c-.573-.315-.769-1.71-1.956-1.722-.396-.004-.873-.005-1.394-.005m0-1.5c.595 0 1.043.002 1.408.005 1.585.015 2.324 1.21 2.68 1.783.036.06.081.133.118.19.137.059.251.086.309.097h7.697c1.72 0 3.12 1.4 3.12 3.12v11.715c0 1.72-1.4 3.12-3.12 3.12H1.618c-1.72 0-3.12-1.4-3.12-3.12v-13.96c-.01-.507.182-1.24.756-1.843.697-.731 1.758-1.102 3.153-1.102l1.725-.002 1.64-.003z" transform="translate(1057.331 2071.132)"/>
        </g>
        <path id="Line_29" d="M0 0L9.905 0" class="cls-2" transform="translate(1064.045 2063.28)"/>
        <path id="Line_30" d="M0 0L8.364 0" class="cls-2" transform="translate(1065.586 2060.052)"/>
        <path id="Line_31" d="M0 0L6.818 0" class="cls-2" transform="translate(1067.132 2066.509)"/>
    </g>
</svg>
