<svg xmlns="http://www.w3.org/2000/svg" width="20" height="20" viewBox="0 0 20 20">
    <defs>
        <style>
            .cls-1{fill:#1e3e67}
        </style>
    </defs>
    <g id="icons" transform="translate(-2 -2)">
        <g id="exit2">
            <path id="Path_6063" d="M12 10a2.006 2.006 0 0 0 2-2V4a2 2 0 0 0-4 0v4a2.006 2.006 0 0 0 2 2z" class="cls-1"/>
            <path id="Path_6064" d="M19.1 4.9a1.366 1.366 0 0 0-1.1-.4A1.538 1.538 0 0 0 16.5 6a2.1 2.1 0 0 0 .4 1.1 6.8 6.8 0 0 1 2 4.9 7 7 0 0 1-14 0A6.715 6.715 0 0 1 7 7.1 1.606 1.606 0 0 0 7.5 6 1.538 1.538 0 0 0 6 4.5a2.1 2.1 0 0 0-1.1.4 10 10 0 1 0 14.2 0z" class="cls-1"/>
        </g>
    </g>
</svg>
