<svg xmlns="http://www.w3.org/2000/svg" width="27.591" height="27.591" viewBox="0 0 27.591 27.591">
    <defs>
        <clipPath id="clip-path">
            <path id="Path_6071" d="M0 0h27.591v27.591H0z" class="cls-1"/>
        </clipPath>
        <style>
            .cls-1{fill:#2085fb}
        </style>
    </defs>
    <g id="iconfinder_ic_timeline_48px_3669196" clip-path="url(#clip-path)" transform="rotate(180 13.796 13.796)">
        <path id="Path_6070" d="M27.291 14.3a2.306 2.306 0 0 1-2.3 2.3 1.954 1.954 0 0 1-.586-.08l-4.092 4.08a2.031 2.031 0 0 1 .08.6 2.3 2.3 0 1 1-4.6 0 2.031 2.031 0 0 1 .08-.6l-2.931-2.931a2.261 2.261 0 0 1-1.2 0L6.518 22.91a1.954 1.954 0 0 1 .08.586 2.3 2.3 0 1 1-2.3-2.3 1.954 1.954 0 0 1 .586.08l5.242-5.231a2.031 2.031 0 0 1-.08-.6 2.3 2.3 0 0 1 4.6 0 2.031 2.031 0 0 1-.08.6l2.934 2.933a2.261 2.261 0 0 1 1.2 0l4.081-4.093a1.954 1.954 0 0 1-.08-.586 2.3 2.3 0 1 1 4.6 0z" class="cls-1" transform="translate(-.85 -5.102)"/>
    </g>
</svg>
