<svg xmlns="http://www.w3.org/2000/svg" id="iconfinder_Calendar_728916" width="25.349" height="27.039" viewBox="0 0 25.349 27.039">
    <defs>
        <style>
            .cls-1{fill:#2085fb}
        </style>
    </defs>
    <g id="Group_8">
        <g id="Group_7">
            <path id="Path_15" d="M25.969 1.69h-1.69V.845a.845.845 0 0 0-1.69 0v.845H20.9V.845a.845.845 0 0 0-1.69 0v.845h-1.69V.845a.845.845 0 1 0-1.69 0v.845h-1.69V.845a.845.845 0 0 0-1.69 0v.845h-1.69V.845a.845.845 0 1 0-1.69 0v.845H7.38A3.38 3.38 0 0 0 4 5.07v18.589a3.38 3.38 0 0 0 3.38 3.38h18.589a3.38 3.38 0 0 0 3.38-3.38V5.07a3.38 3.38 0 0 0-3.38-3.38zm1.69 21.969a1.692 1.692 0 0 1-1.69 1.69H7.38a1.691 1.691 0 0 1-1.69-1.69V5.07a1.691 1.691 0 0 1 1.69-1.69h1.69v.845a.845.845 0 1 0 1.69 0V3.38h1.69v.845a.845.845 0 0 0 1.69 0V3.38h1.69v.845a.845.845 0 1 0 1.69 0V3.38h1.69v.845a.845.845 0 0 0 1.69 0V3.38h1.69v.845a.845.845 0 0 0 1.69 0V3.38h1.69a1.691 1.691 0 0 1 1.69 1.69z" class="cls-1" transform="translate(-4)"/>
        </g>
    </g>
    <path id="Path_16" d="M20 40v15.209h18.589V40zm13.519 1.69v1.69H31.83v-1.69zm-6.76 5.07H25.07v-1.69h1.69zm1.69-1.69h1.69v1.69H28.45zm-1.69 3.38v1.69H25.07v-1.69zm1.69 0h1.69v1.69H28.45zm3.38 0h1.69v1.69H31.83zm0-1.69v-1.69h1.69v1.69zm-1.69-5.07v1.69H28.45v-1.69zm-3.38 0v1.69H25.07v-1.69zm-5.07 0h1.69v1.69H21.69zm0 3.38h1.69v1.69H21.69zm0 3.38h1.69v1.69H21.69zm0 5.07v-1.69h1.69v1.69zm3.38 0v-1.69h1.69v1.69zm3.38 0v-1.69h1.69v1.69zm3.38 0v-1.69h1.69v1.69zm5.07 0h-1.69v-1.69H36.9zm0-3.38h-1.69v-1.69H36.9zm0-3.38h-1.69v-1.69H36.9zm0-3.38h-1.69v-1.69H36.9z" class="cls-1" transform="translate(-16.62 -31.55)"/>
</svg>
