<svg xmlns="http://www.w3.org/2000/svg" width="18.494" height="18.353" viewBox="0 0 18.494 18.353">
    <defs>
        <style>
            .cls-1{fill:#2085fb}
        </style>
    </defs>
    <g id="iconfinder_performance-clock-speed_353431" transform="translate(-6.711 -6.822)">
        <path id="Path_6365" d="M28.371 24.75a1.448 1.448 0 0 0 2.74.66l2.652-4.784-4.655 2.855a1.447 1.447 0 0 0-.737 1.269z" class="cls-1" transform="translate(-13.727 -8.751)"/>
        <path id="Path_6366" d="M38.609 9.078A9.231 9.231 0 0 0 33 6.822v2.207a6.259 6.259 0 0 1 3.994 1.606z" class="cls-1" transform="translate(-16.66)"/>
        <path id="Path_6367" d="M48.209 20.513h2.2a8.881 8.881 0 0 0-2.342-5.483l-1.56 1.55a7.045 7.045 0 0 1 1.702 3.933z" class="cls-1" transform="translate(-25.224 -5.202)"/>
        <path id="Path_6368" d="M23 16.411a7.007 7.007 0 0 1-6.974 6.567 7.1 7.1 0 0 1-7.117-6.988 7.135 7.135 0 0 1 6.332-6.96V6.823A9.146 9.146 0 0 0 6.711 16a9.238 9.238 0 0 0 9.253 9.176 9.349 9.349 0 0 0 9.236-8.765z" class="cls-1" transform="translate(0 -.001)"/>
    </g>
</svg>
