<svg xmlns="http://www.w3.org/2000/svg" width="17.567" height="16.416" viewBox="0 0 17.567 16.416">
    <g>
        <path fill="#fff" d="M21.87 27.763v-1.5a.862.862 0 0 1 .862-.862h4.962a.863.863 0 0 1 .862.862v1.5H21.87zm9.412 0h-1.555v-1.5a2.035 2.035 0 0 0-2.033-2.033h-4.962a2.035 2.035 0 0 0-2.032 2.033v1.5h-2.177a1.37 1.37 0 0 0-1.123 2.156l2.054 2.936a1.371 1.371 0 0 0 1.124.586h9.176A1.376 1.376 0 0 0 31 32.636l1.077-2.375a.586.586 0 1 0-1.067-.484l-1.077 2.375a.2.2 0 0 1-.182.117h-9.174a.2.2 0 0 1-.164-.085l-2.054-2.937a.191.191 0 0 1-.014-.206.194.194 0 0 1 .178-.108h12.76a1.5 1.5 0 0 1 1.543 1.488v7.563a1.491 1.491 0 0 1-1.488 1.489H19.089a1.491 1.491 0 0 1-1.489-1.487v-6.124a.586.586 0 1 0-1.171 0v6.124a2.662 2.662 0 0 0 2.659 2.66h12.249A2.663 2.663 0 0 0 34 37.986v-7.564a2.659 2.659 0 0 0-2.717-2.659z" transform="translate(-16.43 -24.23)"/>
    </g>
</svg>
