<svg xmlns="http://www.w3.org/2000/svg" width="21.781" height="18.951" viewBox="0 0 21.781 18.951">
  <g id="Project" transform="translate(-335 -1587.185)">
    <path id="_2630097" data-name="2630097" d="M19.612,36.26H14.919V34.369a1.635,1.635,0,0,0-1.633-1.633H8.495a1.635,1.635,0,0,0-1.633,1.633V36.26H2.168A2.171,2.171,0,0,0,0,38.428v11.09a2.171,2.171,0,0,0,2.168,2.168H19.612a2.171,2.171,0,0,0,2.168-2.168V38.428A2.171,2.171,0,0,0,19.612,36.26ZM8.245,34.369a.25.25,0,0,1,.25-.25h4.792a.25.25,0,0,1,.25.25V36.26H8.245ZM1.383,38.428a.786.786,0,0,1,.785-.785H19.612a.786.786,0,0,1,.785.785v1.024a2.184,2.184,0,0,1-1.566,2.086L11.6,43.645a2.528,2.528,0,0,1-1.416,0L2.949,41.538a2.184,2.184,0,0,1-1.566-2.086ZM19.612,50.3H2.168a.786.786,0,0,1-.785-.785v-7.25a3.541,3.541,0,0,0,1.179.6c7.991,2.326,7.58,2.262,8.328,2.262s.328.067,8.328-2.262a3.54,3.54,0,0,0,1.179-.6v7.25a.786.786,0,0,1-.785.785Z" transform="translate(335 1554.449)" fill="#2085fb"/>
  </g>
</svg>
