<svg xmlns="http://www.w3.org/2000/svg" width="21.781" height="18.942" viewBox="0 0 21.781 18.942">
  <g id="Project_active" transform="translate(0 -32.857)">
    <path id="Path_6477" data-name="Path 6477" d="M19.608,36.379H14.917v-1.89a1.634,1.634,0,0,0-1.632-1.632H8.5a1.634,1.634,0,0,0-1.632,1.632v1.89H2.172A2.17,2.17,0,0,0,0,38.547,4.5,4.5,0,0,0,.716,41.7a3.528,3.528,0,0,0,1.85,1.279L9.8,45.088a3.908,3.908,0,0,0,2.188,0l7.23-2.105a3.528,3.528,0,0,0,1.85-1.279,4.506,4.506,0,0,0,.711-3.157,2.17,2.17,0,0,0-2.167-2.167ZM8.245,34.489a.25.25,0,0,1,.25-.25h4.789a.25.25,0,0,1,.25.25v1.89H8.245Z" transform="translate(0)" fill="#fff"/>
    <path id="Path_6478" data-name="Path 6478" d="M19.713,268.87c-7.8,2.271-7.7,2.317-8.711,2.317s-.767,0-8.711-2.316a4.9,4.9,0,0,1-2.174-1.313v6.634a2.17,2.17,0,0,0,2.167,2.167H19.72a2.17,2.17,0,0,0,2.167-2.167v-6.634a4.9,4.9,0,0,1-2.174,1.313Z" transform="translate(-0.112 -224.56)" fill="#fff"/>
  </g>
</svg>
