<svg xmlns="http://www.w3.org/2000/svg" width="23" height="14.001" viewBox="0 0 23 14.001">
    <g fill="none" stroke-linecap="round" stroke-linejoin="round">
        <path d="M-1292-1594l-6 6zm0 0l-6-6z" transform="translate(1314 1601)"/>
        <path fill="#2085fb" d="M-1298-1588l6-6-6 6m6-6h-21 21m0 0l-6-6 6 6m-6 7c-.256 0-.512-.097-.707-.292-.39-.391-.39-1.024 0-1.415l4.293-4.293H-1313c-.552 0-1-.448-1-1s.448-1 1-1h18.586l-4.293-4.293c-.39-.39-.39-1.024 0-1.414.195-.196.451-.293.707-.293.256 0 .512.097.707.293l5.997 5.998.003.002c.096.097.17.209.218.328.046.112.072.233.074.36V-1593.981c-.002.128-.028.25-.074.361v.001c-.014.034-.03.067-.047.099l-.001.002-.002.002v.001l-.001.002-.001.002-.001.002-.002.002-.001.003-.002.003c-.043.075-.096.145-.16.21l-6 6c-.195.195-.45.292-.707.292z" transform="translate(1314 1601)"/>
    </g>
</svg>
