<svg xmlns="http://www.w3.org/2000/svg" width="10" height="6" viewBox="0 0 10 6">
    <g fill="none" stroke-linecap="round" stroke-linejoin="round">
        <path d="M8 0L4 4zM0 0l4 4z" transform="translate(1 1)"/>
        <path fill="#1e3e67" d="M0 0l4 4-4-4m8 0L4 4l4-4m0-1c.256 0 .512.098.707.293.39.39.39 1.023 0 1.414l-4 4C4.512 4.903 4.257 5 4 5c-.023 0-.046 0-.069-.002-.179-.012-.356-.073-.509-.181l-.001-.001c-.045-.032-.088-.068-.128-.108l-.002-.003L-.707.707c-.39-.39-.39-1.024 0-1.414C-.512-.902-.256-1 0-1c.256 0 .512.098.707.293L4 2.586 7.293-.707C7.488-.902 7.743-1 8-1z" transform="translate(1 1)"/>
    </g>
</svg>
